<svg width="239" height="46" viewBox="0 0 239 46" fill="none" xmlns="http://www.w3.org/2000/svg">
<path d="M61.0937 7C64.6137 7 67.507 7.72 69.7737 9.16C72.0403 10.5733 73.2003 12.68 73.2537 15.48V15.96H64.9737V15.8C64.9737 15 64.6803 14.3333 64.0937 13.8C63.507 13.2667 62.6137 13 61.4137 13C60.2403 13 59.3337 13.1733 58.6937 13.52C58.0803 13.8667 57.7737 14.2933 57.7737 14.8C57.7737 15.52 58.2003 16.0533 59.0537 16.4C59.907 16.7467 61.2803 17.1067 63.1737 17.48C65.387 17.9333 67.2003 18.4133 68.6137 18.92C70.0537 19.4 71.307 20.2 72.3737 21.32C73.4403 22.44 73.987 23.96 74.0137 25.88C74.0137 29.1333 72.907 31.5467 70.6937 33.12C68.507 34.6933 65.5737 35.48 61.8937 35.48C57.6003 35.48 54.2537 34.76 51.8537 33.32C49.4803 31.88 48.2937 29.3333 48.2937 25.68H56.6537C56.6537 27.0667 57.0137 28 57.7337 28.48C58.4537 28.9333 59.5737 29.16 61.0937 29.16C62.2137 29.16 63.1337 29.04 63.8537 28.8C64.6003 28.56 64.9737 28.0667 64.9737 27.32C64.9737 26.6533 64.5603 26.16 63.7337 25.84C62.9337 25.4933 61.6137 25.1333 59.7737 24.76C57.5337 24.28 55.6803 23.7867 54.2137 23.28C52.747 22.7467 51.467 21.88 50.3737 20.68C49.2803 19.48 48.7337 17.8533 48.7337 15.8C48.7337 12.7867 49.8937 10.5733 52.2137 9.16C54.5603 7.72 57.5203 7 61.0937 7ZM94.2409 14.52V35H85.4009V14.52H76.3609V7.48H103.241V14.52H94.2409ZM122.974 35L121.814 31.12H112.174L111.014 35H101.974L112.014 7.48H122.294L132.334 35H122.974ZM114.014 24.96H119.974L117.094 15.16H116.934L114.014 24.96ZM161.786 15.92C161.786 17.6 161.333 19.12 160.426 20.48C159.52 21.84 158.2 22.84 156.466 23.48L162.586 35H152.666L147.786 24.96H144.506V35H135.666V7.48H152.506C154.48 7.48 156.16 7.86667 157.546 8.64C158.96 9.38667 160.013 10.4133 160.706 11.72C161.426 13 161.786 14.4 161.786 15.92ZM152.786 16.28C152.786 15.56 152.546 14.96 152.066 14.48C151.586 14 151 13.76 150.306 13.76H144.506V18.84H150.306C151 18.84 151.586 18.6 152.066 18.12C152.546 17.6133 152.786 17 152.786 16.28ZM182.288 14.52V35H173.448V14.52H164.408V7.48H191.288V14.52H182.288Z" fill="white"/>
<path d="M216.111 6.15451C215.393 6.30351 214.874 6.46094 214.267 6.71997L213.9 6.86897L212.296 11.0071C211.418 13.2841 208.066 21.9298 204.85 30.2221C201.634 38.5144 199.008 45.3697 199 45.448C198.992 45.5737 199.128 45.6444 199.742 45.8327C200.149 45.9504 200.517 46.0291 200.548 45.9898C200.573 45.9584 202.528 40.9485 204.882 34.855C207.236 28.7615 209.224 23.6342 209.295 23.4611L209.423 23.139L210.133 23.037C211.522 22.8407 212.895 23.084 214.315 23.7752C215.975 24.5916 217.236 25.6988 220.053 28.8084C221.777 30.7088 223.373 32.1927 224.483 32.9309C225.145 33.3626 226.302 33.8967 227.005 34.0775C227.835 34.2971 229.798 34.2815 230.652 34.0461C231.378 33.8498 232.312 33.4963 232.44 33.3706C232.536 33.2763 239.048 16.5194 239 16.4801C238.984 16.4721 238.665 16.5745 238.29 16.7235C236.542 17.3909 234.786 17.4773 233.19 16.9749C231.235 16.3624 229.551 15.0275 226.438 11.6119C223.517 8.40027 222.121 7.2537 220.229 6.4762C219.032 5.98946 217.459 5.86416 216.111 6.15451ZM220.149 7.10471C220.461 7.23041 220.995 7.5051 221.346 7.71715C221.945 8.08622 222.935 8.82436 222.935 8.91071C222.935 8.9344 222.599 9.82154 222.184 10.8894L221.434 12.8291L221.187 12.6327C220.237 11.8789 218.864 11.1014 218.042 10.8581C217.755 10.7717 217.699 10.7324 217.739 10.599C217.763 10.5047 218.098 9.61752 218.481 8.61232C219.287 6.53162 219.104 6.68865 220.149 7.10471ZM217.148 10.6304C217.388 10.6773 217.587 10.7247 217.611 10.7404C217.635 10.7717 217.108 12.1697 216.191 14.5255C216.127 14.6825 216.103 14.6825 215.616 14.5881C214.603 14.3761 213.022 14.5018 211.929 14.8709C211.666 14.9572 211.45 15.0199 211.442 15.0122C211.41 14.9729 212.911 11.1569 212.975 11.0938C213.07 11.0151 213.781 10.7954 214.363 10.6697C214.97 10.544 216.558 10.5203 217.148 10.6304ZM228.537 14.6195C229.471 15.5303 229.526 15.601 229.455 15.7974C229.407 15.915 229.072 16.7945 228.697 17.7604L228.018 19.5114L228.521 19.9198C229.199 20.4696 230.277 21.0977 231.067 21.3961C231.426 21.5294 231.721 21.6475 231.737 21.6632C231.753 21.6712 231.434 22.519 231.034 23.5479C230.643 24.5687 230.316 25.4559 230.316 25.5109C230.316 25.6523 231.106 25.7856 232 25.7856C232.83 25.7856 233.788 25.6366 234.498 25.3928C234.745 25.3141 234.945 25.2595 234.945 25.2752C234.945 25.3221 233.445 29.1779 233.413 29.2016C233.397 29.2173 233.07 29.3193 232.687 29.4293C231.617 29.7357 230.683 29.8221 229.766 29.7121C229.343 29.657 228.936 29.61 228.848 29.602C228.728 29.5944 228.577 29.9241 227.954 31.51C227.547 32.5622 227.188 33.4417 227.172 33.4654C227.092 33.5361 225.959 33.0887 225.361 32.751C224.77 32.4213 223.581 31.5811 223.485 31.4241C223.413 31.314 224.89 27.5137 225.01 27.5137C225.057 27.5137 225.169 27.5844 225.257 27.6783C225.448 27.8904 226.71 28.7225 227.236 28.9819C227.459 29.092 227.883 29.2647 228.178 29.3667C228.665 29.5237 228.712 29.5317 228.76 29.4137C229.056 28.6912 230.237 25.6053 230.221 25.5896C230.205 25.5816 229.925 25.4796 229.59 25.3619C228.824 25.0948 227.962 24.6081 227.132 23.9876L226.478 23.5009L226.374 23.7599C226.31 23.9009 225.967 24.7884 225.608 25.7229L224.946 27.4269L224.403 26.9398C224.099 26.6808 223.365 25.9346 222.767 25.2985C222.168 24.6627 221.673 24.1366 221.657 24.1366C221.649 24.1366 221.306 25.0005 220.899 26.0603C220.484 27.1205 220.133 27.9844 220.109 27.9844C220.077 27.9844 219.718 27.6077 219.303 27.1518C218.888 26.6964 218.161 25.9503 217.69 25.5029L216.837 24.694L217.603 22.731L218.369 20.768L218.904 21.2391C219.207 21.4981 219.941 22.2443 220.54 22.888C221.146 23.5318 221.641 24.0579 221.657 24.0579C221.665 24.0579 222.008 23.1941 222.415 22.1342C222.822 21.074 223.181 20.2106 223.213 20.2106C223.237 20.2106 223.596 20.5716 223.995 21.0194C224.985 22.1266 226.406 23.4692 226.486 23.3828C226.517 23.3435 226.877 22.464 227.276 21.4274L228.01 19.5507L226.781 18.3259C226.111 17.6584 225.368 16.9046 225.137 16.6612L224.722 16.2058L224.619 16.4648C224.555 16.5982 224.212 17.4857 223.852 18.4279L223.19 20.1399L222.703 19.6058C222.033 18.8596 220.165 16.9909 220.014 16.9122C219.902 16.8496 219.774 17.1162 219.136 18.7576C218.729 19.8178 218.354 20.6812 218.306 20.6812C218.25 20.6812 218.146 20.6106 218.066 20.5242C217.428 19.8331 214.667 18.4275 214.555 18.7419C214.531 18.7969 214.196 19.6684 213.805 20.6816C213.095 22.5113 213.086 22.527 212.863 22.5113C210.956 22.3467 210.094 22.4013 208.961 22.7547C208.633 22.8567 208.37 22.9354 208.37 22.9198C208.37 22.8961 209.711 19.4254 209.839 19.1033C209.895 18.9776 210.645 18.7186 211.363 18.5692C212.113 18.4202 212.951 18.3885 213.638 18.4829C214.013 18.5379 214.38 18.5849 214.46 18.5929C214.588 18.6009 214.739 18.2632 215.354 16.6925C215.769 15.6403 216.12 14.7608 216.144 14.7371C216.224 14.6584 217.349 15.1062 217.995 15.4677C218.346 15.664 218.905 16.0331 219.248 16.2921C219.592 16.5592 219.887 16.7556 219.903 16.7395C219.919 16.7239 220.262 15.868 220.661 14.8315C221.06 13.795 221.403 12.9392 221.419 12.9155C221.499 12.8448 222.425 13.7163 223.526 14.8865C224.165 15.5697 224.708 16.0958 224.739 16.0644C224.771 16.0331 225.107 15.193 225.49 14.2034C225.872 13.2062 226.2 12.3661 226.224 12.3267C226.248 12.2874 226.559 12.5701 226.91 12.9548C227.26 13.3396 227.994 14.0853 228.537 14.6195ZM237.978 17.4383C237.97 17.4777 237.643 18.3491 237.236 19.3857L236.502 21.2704L236.023 21.4354C235.424 21.6475 234.188 21.8595 233.573 21.8595C233.006 21.8595 231.985 21.7182 231.881 21.6238C231.841 21.5844 232.128 20.7286 232.559 19.6214L233.31 17.6817L233.549 17.7367C234.65 17.9644 236.071 17.9094 237.156 17.5877C237.858 17.3837 237.978 17.36 237.978 17.4383Z" fill="white"/>
<path d="M22.8891 6.15451C23.6075 6.30351 24.1263 6.46094 24.7328 6.71997L25.0997 6.86897L26.7038 11.0071C27.5818 13.2841 30.9336 21.9298 34.1499 30.2221C37.3662 38.5144 39.9919 45.3697 39.9997 45.448C40.0078 45.5737 39.8719 45.6444 39.2576 45.8327C38.8507 45.9504 38.4833 46.0291 38.4515 45.9898C38.4274 45.9584 36.4723 40.9485 34.1181 34.855C31.7638 28.7615 29.7764 23.6342 29.7046 23.4611L29.5769 23.139L28.8667 23.037C27.4781 22.8407 26.1054 23.084 24.6846 23.7752C23.0246 24.5916 21.7638 25.6988 18.9467 28.8084C17.223 30.7088 15.6267 32.1927 14.5173 32.9309C13.8549 33.3626 12.6978 33.8967 11.9953 34.0775C11.1651 34.2971 9.20226 34.2815 8.34798 34.0461C7.62186 33.8498 6.68799 33.4963 6.56023 33.3706C6.46432 33.2763 -0.0478973 16.5194 0.000267029 16.4801C0.0161858 16.4721 0.335365 16.5745 0.710464 16.7235C2.45821 17.3909 4.21412 17.4773 5.81004 16.9749C7.76513 16.3624 9.4492 15.0275 12.5618 11.6119C15.4826 8.40027 16.8794 7.2537 18.7708 6.4762C19.9683 5.98946 21.5406 5.86416 22.8891 6.15451ZM18.8508 7.10471C18.5394 7.23041 18.0047 7.5051 17.6536 7.71715C17.0553 8.08622 16.0655 8.82436 16.0655 8.91071C16.0655 8.9344 16.4006 9.82154 16.8157 10.8894L17.5659 12.8291L17.8132 12.6327C18.763 11.8789 20.1357 11.1014 20.9577 10.8581C21.2451 10.7717 21.301 10.7324 21.261 10.599C21.2369 10.5047 20.9018 9.61752 20.5189 8.61232C19.7128 6.53162 19.8965 6.68865 18.8508 7.10471ZM21.8516 10.6304C21.612 10.6773 21.4128 10.7247 21.3887 10.7404C21.3647 10.7717 21.8916 12.1697 22.8091 14.5255C22.8728 14.6825 22.8969 14.6825 23.3838 14.5881C24.3973 14.3761 25.9777 14.5018 27.0707 14.8709C27.334 14.9572 27.5495 15.0199 27.5577 15.0122C27.5895 14.9729 26.0891 11.1569 26.0254 11.0938C25.9295 11.0151 25.2193 10.7954 24.6369 10.6697C24.0304 10.544 22.4422 10.5203 21.8516 10.6304ZM10.4631 14.6195C9.5292 15.5303 9.47369 15.601 9.54512 15.7974C9.59287 15.915 9.92797 16.7945 10.3035 17.7604L10.9818 19.5114L10.479 19.9198C9.80062 20.4696 8.72308 21.0977 7.93329 21.3961C7.5741 21.5294 7.279 21.6475 7.26309 21.6632C7.24717 21.6712 7.56635 22.519 7.96553 23.5479C8.35655 24.5687 8.6839 25.4559 8.6839 25.5109C8.6839 25.6523 7.8937 25.7856 6.99982 25.7856C6.16962 25.7856 5.21208 25.6366 4.50188 25.3928C4.25453 25.3141 4.05494 25.2595 4.05494 25.2752C4.05494 25.3221 5.55534 29.1779 5.58718 29.2016C5.6031 29.2173 5.93044 29.3193 6.3133 29.4293C7.38268 29.7357 8.31655 29.8221 9.2341 29.7121C9.65695 29.657 10.0639 29.61 10.1521 29.602C10.2716 29.5944 10.4235 29.9241 11.0459 31.51C11.4529 32.5622 11.812 33.4417 11.828 33.4654C11.908 33.5361 13.041 33.0887 13.6394 32.751C14.23 32.4213 15.419 31.5811 15.5149 31.4241C15.5867 31.314 14.1104 27.5137 13.9904 27.5137C13.9426 27.5137 13.8308 27.5844 13.7431 27.6783C13.5516 27.8904 12.2904 28.7225 11.7639 28.9819C11.5406 29.092 11.1174 29.2647 10.8223 29.3667C10.3353 29.5237 10.2876 29.5317 10.2398 29.4137C9.9443 28.6912 8.76349 25.6053 8.77941 25.5896C8.79532 25.5816 9.07451 25.4796 9.41002 25.3619C10.1761 25.0948 11.0382 24.6081 11.868 23.9876L12.5222 23.5009L12.6259 23.7599C12.69 23.9009 13.0329 24.7884 13.392 25.7229L14.0545 27.4269L14.5973 26.9398C14.9006 26.6808 15.6349 25.9346 16.2332 25.2985C16.832 24.6627 17.3267 24.1366 17.3426 24.1366C17.3508 24.1366 17.6936 25.0005 18.101 26.0603C18.5161 27.1205 18.8671 27.9844 18.8912 27.9844C18.923 27.9844 19.2822 27.6077 19.6973 27.1518C20.1124 26.6964 20.8385 25.9503 21.3095 25.5029L22.1634 24.694L21.3969 22.731L20.6308 20.768L20.0961 21.2391C19.7928 21.4981 19.0585 22.2443 18.4602 22.888C17.8536 23.5318 17.359 24.0579 17.343 24.0579C17.3349 24.0579 16.992 23.1941 16.5847 22.1342C16.1777 21.074 15.8186 20.2106 15.7867 20.2106C15.7626 20.2106 15.4039 20.5716 15.0047 21.0194C14.0149 22.1266 12.5945 23.4692 12.5145 23.3828C12.4827 23.3435 12.1235 22.464 11.7243 21.4274L10.99 19.5507L12.219 18.3259C12.8892 17.6584 13.6316 16.9046 13.8631 16.6612L14.2777 16.2058L14.3814 16.4648C14.4451 16.5982 14.7884 17.4857 15.1475 18.4279L15.81 20.1399L16.2969 19.6058C16.9671 18.8596 18.8349 16.9909 18.9863 16.9122C19.0981 16.8496 19.2259 17.1162 19.8643 18.7576C20.2712 19.8178 20.6463 20.6812 20.694 20.6812C20.75 20.6812 20.8536 20.6106 20.9336 20.5242C21.572 19.8331 24.3332 18.4275 24.445 18.7419C24.4691 18.7969 24.8042 19.6684 25.1952 20.6816C25.9054 22.5113 25.9136 22.527 26.1369 22.5113C28.0442 22.3467 28.9062 22.4013 30.0393 22.7547C30.3666 22.8567 30.6299 22.9354 30.6299 22.9198C30.6299 22.8961 29.2891 19.4254 29.1613 19.1033C29.1054 18.9776 28.3552 18.7186 27.6369 18.5692C26.8867 18.4202 26.0487 18.3885 25.3622 18.4829C24.9871 18.5379 24.6201 18.5849 24.5401 18.5929C24.4124 18.6009 24.261 18.2632 23.6463 16.6925C23.2312 15.6403 22.8802 14.7608 22.8561 14.7371C22.7761 14.6584 21.6512 15.1062 21.0047 15.4677C20.6536 15.664 20.0949 16.0331 19.7516 16.2921C19.4083 16.5592 19.1132 16.7556 19.0973 16.7395C19.0814 16.7239 18.7381 15.868 18.339 14.8315C17.9398 13.795 17.5969 12.9392 17.5806 12.9155C17.5006 12.8448 16.5749 13.7163 15.4737 14.8865C14.8353 15.5697 14.2924 16.0958 14.2606 16.0644C14.2288 16.0331 13.8933 15.193 13.5104 14.2034C13.1275 13.2062 12.8002 12.3661 12.7761 12.3267C12.752 12.2874 12.441 12.5701 12.09 12.9548C11.7402 13.3396 11.0059 14.0853 10.4631 14.6195ZM1.02189 17.4383C1.03006 17.4777 1.35699 18.3491 1.76393 19.3857L2.49821 21.2704L2.97699 21.4354C3.57576 21.6475 4.81248 21.8595 5.42718 21.8595C5.99371 21.8595 7.01534 21.7182 7.11901 21.6238C7.15901 21.5844 6.87166 20.7286 6.44064 19.6214L5.69044 17.6817L5.45085 17.7367C4.34963 17.9644 2.92882 17.9094 1.84352 17.5877C1.14189 17.3837 1.02189 17.36 1.02189 17.4383Z" fill="white"/>
</svg>
